<svg id="Layer_1" data-name="Layer 1" xmlns="http://www.w3.org/2000/svg" viewBox="0 0 684.3 1080.24"><defs><style>.cls-1{fill:#fff;}</style></defs><title>Untitled-1</title><path class="cls-1" d="M252,467a52.57,52.57,0,0,1-3.93,20L428,613a84.06,84.06,0,0,1,36.39-30.32l-21.31-96.26c-.43,0-.85.07-1.28.07A44.66,44.66,0,1,1,454.29,399l50.53-99a44.68,44.68,0,1,1,13.88,9.62l-49.5,97a44.61,44.61,0,0,1-9.72,76.24l20.95,94.74a83.51,83.51,0,0,1,78.11,24.59l93.58-64.28a44.62,44.62,0,0,1,71.55-50.33q43.22-35.18,68.8-78.95,31.35-54,31.36-122.69,0-71.49-34.28-132.13t-94.14-100Q644.32,20.24,586,10T450.27-.24H197.81V414c.4,0,.79-.07,1.21-.07A53,53,0,0,1,252,467Z" transform="translate(-197.81 0.24)"/><path class="cls-1" d="M834.72,610.08q-37.08-56-97.09-89.49a44.62,44.62,0,0,1-76,31.14L568.75,615.5a83.61,83.61,0,0,1-121.17,111L349.23,833.85a44.86,44.86,0,1,1-12.36-11.32l98.37-107.3a83.33,83.33,0,0,1-15.1-87.29L239.4,501.29A52.87,52.87,0,0,1,199,520c-.42,0-.81-.06-1.21-.06V1080H451.69q102.12,0,153.18-7.31,80.28-11.65,143.72-51.05a271.44,271.44,0,0,0,98.5-105.81,297.53,297.53,0,0,0,35-140.84Q882.11,681.6,834.72,610.08Z" transform="translate(-197.81 0.24)"/></svg>